<svg width="16" height="16" viewBox="0 0 16 16" fill="none" xmlns="http://www.w3.org/2000/svg">
<path d="M8.00261 0C4.66268 0 3.68588 0.00344645 3.49601 0.0192016C2.8106 0.0761911 2.3841 0.184139 1.91945 0.415543C1.56136 0.593404 1.27895 0.799575 1.00024 1.08858C0.492639 1.61564 0.185005 2.26407 0.0736409 3.03484C0.0194972 3.40903 0.0037463 3.48534 0.000546906 5.39664C-0.000683632 6.03374 0.000546906 6.87221 0.000546906 7.99686C0.000546906 11.335 0.00423852 12.3111 0.0202355 12.5006C0.0756097 13.1678 0.180205 13.5875 0.401702 14.0466C0.825007 14.9254 1.63347 15.5852 2.58591 15.8314C2.91569 15.9163 3.27993 15.9631 3.74753 15.9852C3.94565 15.9938 5.96496 16 7.98551 16C10.006 16 12.0266 15.9975 12.2198 15.9877C12.7612 15.9622 13.0756 15.92 13.4233 15.8301C13.8955 15.709 14.3356 15.4862 14.7129 15.1773C15.0902 14.8684 15.3954 14.4808 15.6075 14.0417C15.8246 13.5936 15.9348 13.1579 15.9846 12.5256C15.9954 12.3878 16 10.1898 16 7.99477C16 5.79938 15.9951 3.60547 15.9842 3.46762C15.9338 2.8251 15.8237 2.39306 15.5995 1.93641C15.4155 1.56259 15.2112 1.28343 14.9147 0.997992C14.3855 0.492349 13.7383 0.184631 12.9668 0.0733601C12.5931 0.0193247 12.5187 0.00332336 10.6064 0H8.00261Z" fill="url(#paint0_radial_1_345)"/>
<path d="M8.00261 0C4.66268 0 3.68588 0.00344645 3.49601 0.0192016C2.8106 0.0761911 2.3841 0.184139 1.91945 0.415543C1.56136 0.593404 1.27895 0.799575 1.00024 1.08858C0.492639 1.61564 0.185005 2.26407 0.0736409 3.03484C0.0194972 3.40903 0.0037463 3.48534 0.000546906 5.39664C-0.000683632 6.03374 0.000546906 6.87221 0.000546906 7.99686C0.000546906 11.335 0.00423852 12.3111 0.0202355 12.5006C0.0756097 13.1678 0.180205 13.5875 0.401702 14.0466C0.825007 14.9254 1.63347 15.5852 2.58591 15.8314C2.91569 15.9163 3.27993 15.9631 3.74753 15.9852C3.94565 15.9938 5.96496 16 7.98551 16C10.006 16 12.0266 15.9975 12.2198 15.9877C12.7612 15.9622 13.0756 15.92 13.4233 15.8301C13.8955 15.709 14.3356 15.4862 14.7129 15.1773C15.0902 14.8684 15.3954 14.4808 15.6075 14.0417C15.8246 13.5936 15.9348 13.1579 15.9846 12.5256C15.9954 12.3878 16 10.1898 16 7.99477C16 5.79938 15.9951 3.60547 15.9842 3.46762C15.9338 2.8251 15.8237 2.39306 15.5995 1.93641C15.4155 1.56259 15.2112 1.28343 14.9147 0.997992C14.3855 0.492349 13.7383 0.184631 12.9668 0.0733601C12.5931 0.0193247 12.5187 0.00332336 10.6064 0H8.00261Z" fill="url(#paint1_radial_1_345)"/>
<path d="M7.99888 2.09253C6.39475 2.09253 6.19343 2.09955 5.56339 2.12822C4.93459 2.15703 4.50538 2.2566 4.12982 2.40271C3.74133 2.55361 3.4118 2.75548 3.08349 3.084C2.75493 3.41239 2.55313 3.74202 2.40177 4.13048C2.25533 4.50627 2.15566 4.93572 2.12736 5.56445C2.0993 6.19466 2.09192 6.39615 2.09192 8.00072C2.09192 9.60528 2.09906 9.80604 2.1276 10.4362C2.15652 11.0652 2.25607 11.4945 2.40201 11.8702C2.553 12.2588 2.75481 12.5884 3.08324 12.9168C3.41143 13.2455 3.74096 13.4478 4.1292 13.5987C4.50501 13.7448 4.93434 13.8444 5.56302 13.8732C6.19306 13.9019 6.39425 13.9089 7.99826 13.9089C9.60252 13.9089 9.80322 13.9019 10.4333 13.8732C11.0621 13.8444 11.4918 13.7448 11.8676 13.5987C12.2559 13.4478 12.585 13.2455 12.9132 12.9168C13.2417 12.5884 13.4435 12.2588 13.5949 11.8703C13.7401 11.4945 13.8398 11.0651 13.8693 10.4364C13.8976 9.80616 13.905 9.60528 13.905 8.00072C13.905 6.39615 13.8976 6.19478 13.8693 5.56457C13.8398 4.9356 13.7401 4.50627 13.5949 4.13061C13.4435 3.74202 13.2417 3.41239 12.9132 3.084C12.5846 2.75535 12.2561 2.55349 11.8672 2.40271C11.4907 2.2566 11.0612 2.15703 10.4324 2.12822C9.80236 2.09955 9.60178 2.09253 7.99715 2.09253H7.99888ZM7.46901 3.15723C7.62627 3.15699 7.80174 3.15723 7.99888 3.15723C9.57594 3.15723 9.76286 3.1629 10.3856 3.19121C10.9615 3.21755 11.2741 3.3138 11.4823 3.39467C11.7579 3.50176 11.9544 3.62977 12.1611 3.83655C12.3678 4.04334 12.4958 4.24028 12.6031 4.51599C12.6839 4.72401 12.7803 5.03665 12.8065 5.6127C12.8348 6.23552 12.8409 6.42262 12.8409 7.99936C12.8409 9.57611 12.8348 9.7632 12.8065 10.386C12.7801 10.9621 12.6839 11.2747 12.6031 11.4827C12.496 11.7584 12.3678 11.9548 12.1611 12.1614C11.9543 12.3682 11.7581 12.4962 11.4823 12.6033C11.2743 12.6846 10.9615 12.7806 10.3856 12.8069C9.76298 12.8352 9.57594 12.8414 7.99888 12.8414C6.42169 12.8414 6.23478 12.8352 5.61212 12.8069C5.03623 12.7803 4.72367 12.6841 4.51534 12.6032C4.2397 12.4961 4.04282 12.3681 3.83609 12.1613C3.62935 11.9545 3.50138 11.7581 3.39408 11.4822C3.31323 11.2742 3.21688 10.9616 3.19067 10.3855C3.16237 9.76271 3.1567 9.57562 3.1567 7.99789C3.1567 6.42015 3.16237 6.23405 3.19067 5.61122C3.217 5.03518 3.31323 4.72253 3.39408 4.51427C3.50113 4.23856 3.62935 4.04162 3.83609 3.83483C4.04282 3.62804 4.2397 3.50003 4.51534 3.3927C4.72355 3.31146 5.03623 3.21545 5.61212 3.18899C6.15701 3.16437 6.36817 3.15699 7.46901 3.15576V3.15723ZM11.1518 4.13824C11.0116 4.13824 10.8745 4.17983 10.758 4.25774C10.6414 4.33566 10.5505 4.4464 10.4969 4.57596C10.4433 4.70553 10.4292 4.84809 10.4566 4.98563C10.484 5.12316 10.5515 5.24949 10.6507 5.34864C10.7498 5.44778 10.8761 5.51528 11.0136 5.54261C11.1511 5.56994 11.2937 5.55587 11.4232 5.50217C11.5527 5.44847 11.6634 5.35756 11.7412 5.24093C11.8191 5.12431 11.8606 4.98721 11.8606 4.84698C11.8606 4.45556 11.5431 4.13799 11.1518 4.13799V4.13824ZM7.99888 4.96662C6.32374 4.96662 4.9656 6.32513 4.9656 8.00072C4.9656 9.6763 6.32374 11.0342 7.99888 11.0342C9.67401 11.0342 11.0318 9.6763 11.0318 8.00072C11.0318 6.32513 9.67389 4.96662 7.99875 4.96662H7.99888ZM7.99888 6.03132C9.08618 6.03132 9.96774 6.913 9.96774 8.00072C9.96774 9.08832 9.08618 9.97011 7.99888 9.97011C6.91145 9.97011 6.03001 9.08832 6.03001 8.00072C6.03001 6.913 6.91145 6.03132 7.99888 6.03132V6.03132Z" fill="white"/>
<defs>
<radialGradient id="paint0_radial_1_345" cx="0" cy="0" r="1" gradientUnits="userSpaceOnUse" gradientTransform="translate(4.25002 17.2323) rotate(-90) scale(15.8572 14.7484)">
<stop stop-color="#FFDD55"/>
<stop offset="0.1" stop-color="#FFDD55"/>
<stop offset="0.5" stop-color="#FF543E"/>
<stop offset="1" stop-color="#C837AB"/>
</radialGradient>
<radialGradient id="paint1_radial_1_345" cx="0" cy="0" r="1" gradientUnits="userSpaceOnUse" gradientTransform="translate(-2.68008 1.15261) rotate(78.6806) scale(7.08823 29.218)">
<stop stop-color="#3771C8"/>
<stop offset="0.128" stop-color="#3771C8"/>
<stop offset="1" stop-color="#6600FF" stop-opacity="0"/>
</radialGradient>
</defs>
</svg>
