<svg width="40" height="40" viewBox="0 0 40 40" fill="none" xmlns="http://www.w3.org/2000/svg">
<path d="M21.1272 7.67151H16.4805C15.8236 7.67151 15.3086 8.20885 15.3086 8.84338V25.5317C15.3086 26.1789 15.8333 26.7035 16.4805 26.7035C17.1277 26.7035 17.6523 26.1789 17.6523 25.5317V19.4483C18.7398 19.4422 20.3313 19.4342 21.1273 19.4342C22.698 19.4342 24.1873 18.8263 25.3209 17.7225C26.4687 16.605 27.1008 15.1242 27.1008 13.5528C27.1008 11.9815 26.4687 10.5006 25.3209 9.38307C24.1873 8.2794 22.698 7.67151 21.1272 7.67151V7.67151ZM21.1272 17.0904C20.3359 17.0904 18.767 17.0983 17.678 17.1044C17.6581 13.4546 17.6695 14.6819 17.6559 10.0153H21.1272C23.0948 10.0153 24.757 11.6353 24.757 13.5528C24.757 15.4704 23.0948 17.0904 21.1272 17.0904Z" fill="#FF7665" fill-opacity="0.8"/>
<path d="M32.1533 5.03406C28.9071 1.78781 24.5909 0 19.9998 0C15.4088 0 11.0927 1.78781 7.84641 5.03406C-1.5907 14.4712 2.89156 30.739 15.9373 33.8911V38.0469C15.9373 39.1238 16.8135 40 17.8905 40H22.1092C23.1862 40 24.0623 39.1238 24.0623 38.0469V33.8911C37.1207 30.7359 41.5838 14.4645 32.1533 5.03406V5.03406ZM21.7186 37.6562H18.2811V34.2899C19.4209 34.403 20.5787 34.403 21.7186 34.2899V37.6562ZM22.6801 31.7902C13.6448 33.4389 5.15609 26.5484 5.15609 17.1875C5.15609 9.00266 11.8149 2.34375 19.9998 2.34375C28.1848 2.34375 34.8436 9.00266 34.8436 17.1875C34.8436 24.3529 29.7407 30.5017 22.6801 31.7902Z" fill="#FF7665" fill-opacity="0.8"/>
</svg>
