<svg width="40" height="40" viewBox="0 0 40 40" fill="none" xmlns="http://www.w3.org/2000/svg">
<path d="M17.4333 30C16.9099 29.9969 16.3931 29.8833 15.9166 29.6667C15.4013 29.4395 14.9623 29.0689 14.652 28.599C14.3417 28.1291 14.1732 27.5797 14.1666 27.0167V12.9833C14.1732 12.4202 14.3417 11.8709 14.652 11.401C14.9623 10.9311 15.4013 10.5605 15.9166 10.3333C16.5095 10.0533 17.1692 9.94541 17.8204 10.022C18.4716 10.0986 19.0882 10.3567 19.6 10.7667L28.1 17.7833C28.4333 18.0487 28.7025 18.3858 28.8875 18.7696C29.0725 19.1534 29.1686 19.5739 29.1686 20C29.1686 20.426 29.0725 20.8466 28.8875 21.2304C28.7025 21.6142 28.4333 21.9513 28.1 22.2167L19.6 29.2333C18.9873 29.7302 18.2221 30.0009 17.4333 30Z" fill="#F95F5F"/>
</svg>
