<svg width="40" height="32" viewBox="0 0 40 32" fill="none" xmlns="http://www.w3.org/2000/svg">
<path d="M1.49337 24.5808C16.6947 20.2596 22.251 28.992 39.1246 24.5875C39.7509 24.424 40.126 23.7838 39.9625 23.1576C39.7991 22.5314 39.1588 22.1564 38.5327 22.3197C35.2199 23.1845 32.3485 23.5046 29.7483 23.508L26.3509 18.0322C28.3592 20.5276 32.0916 20.6714 34.2785 18.346C35.2399 17.3236 35.7457 15.988 35.7028 14.5852C35.5585 9.88254 29.7967 7.77246 26.6235 11.1466C25.0949 12.7721 24.8177 15.0832 25.6783 16.9481L21.0295 9.45558L27.9281 7.46488C30.0706 6.84668 31.0831 4.39433 29.9945 2.44378C29.2042 1.02753 27.5637 0.352378 26.0056 0.802066L15.5616 3.81589C12.8537 4.59738 11.641 7.74519 13.1279 10.1418L16.2846 15.2295C14.0091 16.642 6.79165 21.1176 6.71501 21.1707C4.90337 21.3622 2.96321 21.7264 0.852663 22.3264C0.230163 22.5033 -0.131087 23.1514 0.045866 23.774C0.222741 24.3967 0.871101 24.7578 1.49337 24.5808V24.5808ZM28.3308 12.7524C29.4339 11.5794 31.2753 11.5262 32.4449 12.6261C33.6167 13.7281 33.6733 15.5684 32.5712 16.7403C31.4694 17.9119 29.6289 17.9687 28.457 16.8666C27.2852 15.7646 27.2287 13.9243 28.3308 12.7524V12.7524ZM18.8938 14.9897L15.1194 8.90621C14.4527 7.83175 14.9955 6.41871 16.2113 6.06785L26.6553 3.05402C27.1605 2.90808 27.6917 3.12707 27.9479 3.58597C28.3013 4.21933 27.971 5.01308 27.2783 5.213L18.8931 7.63277C18.1467 7.84816 17.8134 8.71769 18.2222 9.37652L26.9164 23.3892C21.4487 22.9302 17.006 21.2811 11.3805 21.0307L18.516 16.6032C19.0659 16.2621 19.2351 15.5396 18.8938 14.9897V14.9897Z" fill="#FF7665" fill-opacity="0.8"/>
<path d="M38.5319 27.7885C22.3879 32.0027 16.723 23.2833 0.851747 27.7951C0.229247 27.9721 -0.132003 28.6202 0.0449505 29.2428C0.221904 29.8654 0.870263 30.2266 1.49261 30.0496C16.6939 25.7283 22.2502 34.4608 39.1239 30.0562C39.7501 29.8928 40.1252 29.2526 39.9617 28.6264C39.7983 28.0001 39.1581 27.6251 38.5319 27.7885V27.7885Z" fill="#FF7665" fill-opacity="0.8"/>
</svg>
